<svg width="24" height="24" viewBox="0 0 24 24" fill="none" xmlns="http://www.w3.org/2000/svg">
<path d="M23.6133 11.9333C23.5764 5.51155 18.3434 0.338425 11.9216 0.375344C5.49987 0.412262 0.326739 5.64521 0.363658 12.067C0.397073 17.8794 4.64351 22.6832 10.2264 23.4948L10.1798 15.3856L7.2267 15.4026L7.20729 12.0276L10.1604 12.0107L10.1458 9.47945C10.1291 6.57325 11.854 4.92268 14.479 4.90759C15.7915 4.90005 17.1053 5.12687 17.1053 5.12687L17.1217 7.9862L15.6686 7.99455C14.2155 8.00291 13.7519 8.89621 13.7573 9.8337L13.7697 11.9899L17.004 11.9713L16.5078 15.3492L13.7891 15.3649L13.8357 23.4741C19.4089 22.5983 23.6467 17.7457 23.6133 11.9333Z" fill="white"/>
</svg>
